<?xml version="1.0" encoding="UTF-8" standalone="no"?>
<svg
   xmlns:dc="http://purl.org/dc/elements/1.1/"
   xmlns:cc="http://creativecommons.org/ns#"
   xmlns:rdf="http://www.w3.org/1999/02/22-rdf-syntax-ns#"
   xmlns:svg="http://www.w3.org/2000/svg"
   xmlns="http://www.w3.org/2000/svg"
   viewBox="0 0 513.87158 677.15173"
   height="677.15173"
   width="513.87158"
   xml:space="preserve"
   version="1.1"
   id="svg3374"><metadata
     id="metadata3380"><rdf:RDF><cc:Work
         rdf:about=""><dc:format>image/svg+xml</dc:format><dc:type
           rdf:resource="http://purl.org/dc/dcmitype/StillImage" /><dc:title></dc:title></cc:Work></rdf:RDF></metadata><defs
     id="defs3378"><clipPath
       id="clipPath3390"
       clipPathUnits="userSpaceOnUse"><path
         id="path3392"
         d="M 0,980 1400,980 1400,0 0,0 0,980 Z" /></clipPath><clipPath
       id="clipPath3398"
       clipPathUnits="userSpaceOnUse"><path
         id="path3400"
         d="m 7,950 1388.71,0 0,-913.7061 L 7,36.2939 7,950 Z" /></clipPath><clipPath
       id="clipPath3438"
       clipPathUnits="userSpaceOnUse"><path
         id="path3440"
         d="M 0,980 1400,980 1400,0 0,0 0,980 Z" /></clipPath><clipPath
       id="clipPath3462"
       clipPathUnits="userSpaceOnUse"><path
         id="path3464"
         d="m 190.575,636.931 59.183,0 0,-14.57 -59.183,0 0,14.57 z" /></clipPath><clipPath
       id="clipPath3478"
       clipPathUnits="userSpaceOnUse"><path
         id="path3480"
         d="m 248.875,693.591 51.162,0 0,-17.643 -51.162,0 0,17.643 z" /></clipPath><clipPath
       id="clipPath3494"
       clipPathUnits="userSpaceOnUse"><path
         id="path3496"
         d="m 142.574,693.591 51.162,0 0,-17.643 -51.162,0 0,17.643 z" /></clipPath><clipPath
       id="clipPath3510"
       clipPathUnits="userSpaceOnUse"><path
         id="path3512"
         d="m 210.094,693.684 24.165,0 0,-31.184 -24.165,0 0,31.184 z" /></clipPath><clipPath
       id="clipPath3546"
       clipPathUnits="userSpaceOnUse"><path
         id="path3548"
         d="m 666.575,637.931 59.183,0 0,-14.571 -59.183,0 0,14.571 z" /></clipPath><clipPath
       id="clipPath3562"
       clipPathUnits="userSpaceOnUse"><path
         id="path3564"
         d="m 724.875,694.591 51.162,0 0,-17.643 -51.162,0 0,17.643 z" /></clipPath><clipPath
       id="clipPath3578"
       clipPathUnits="userSpaceOnUse"><path
         id="path3580"
         d="m 618.574,694.591 51.162,0 0,-17.643 -51.162,0 0,17.643 z" /></clipPath><clipPath
       id="clipPath3594"
       clipPathUnits="userSpaceOnUse"><path
         id="path3596"
         d="m 686.094,694.684 24.165,0 0,-31.184 -24.165,0 0,31.184 z" /></clipPath><clipPath
       id="clipPath3630"
       clipPathUnits="userSpaceOnUse"><path
         id="path3632"
         d="m 1146.58,637.931 59.18,0 0,-14.571 -59.18,0 0,14.571 z" /></clipPath><clipPath
       id="clipPath3646"
       clipPathUnits="userSpaceOnUse"><path
         id="path3648"
         d="m 1204.87,694.591 51.17,0 0,-17.643 -51.17,0 0,17.643 z" /></clipPath><clipPath
       id="clipPath3662"
       clipPathUnits="userSpaceOnUse"><path
         id="path3664"
         d="m 1098.57,694.591 51.17,0 0,-17.643 -51.17,0 0,17.643 z" /></clipPath><clipPath
       id="clipPath3678"
       clipPathUnits="userSpaceOnUse"><path
         id="path3680"
         d="m 1166.09,694.684 24.17,0 0,-31.184 -24.17,0 0,31.184 z" /></clipPath><clipPath
       id="clipPath3722"
       clipPathUnits="userSpaceOnUse"><path
         id="path3724"
         d="m 667.575,160.931 59.183,0 0,-14.571 -59.183,0 0,14.571 z" /></clipPath><clipPath
       id="clipPath3738"
       clipPathUnits="userSpaceOnUse"><path
         id="path3740"
         d="m 725.875,217.591 51.162,0 0,-17.643 -51.162,0 0,17.643 z" /></clipPath><clipPath
       id="clipPath3754"
       clipPathUnits="userSpaceOnUse"><path
         id="path3756"
         d="m 619.574,217.591 51.162,0 0,-17.643 -51.162,0 0,17.643 z" /></clipPath><clipPath
       id="clipPath3770"
       clipPathUnits="userSpaceOnUse"><path
         id="path3772"
         d="m 687.094,217.684 24.165,0 0,-31.184 -24.165,0 0,31.184 z" /></clipPath><clipPath
       id="clipPath3806"
       clipPathUnits="userSpaceOnUse"><path
         id="path3808"
         d="m 190.575,162.931 59.183,0 0,-14.571 -59.183,0 0,14.571 z" /></clipPath><clipPath
       id="clipPath3822"
       clipPathUnits="userSpaceOnUse"><path
         id="path3824"
         d="m 248.875,219.591 51.162,0 0,-17.643 -51.162,0 0,17.643 z" /></clipPath><clipPath
       id="clipPath3838"
       clipPathUnits="userSpaceOnUse"><path
         id="path3840"
         d="m 142.574,219.591 51.162,0 0,-17.643 -51.162,0 0,17.643 z" /></clipPath><clipPath
       id="clipPath3854"
       clipPathUnits="userSpaceOnUse"><path
         id="path3856"
         d="m 210.094,219.684 24.165,0 0,-31.184 -24.165,0 0,31.184 z" /></clipPath><clipPath
       id="clipPath3890"
       clipPathUnits="userSpaceOnUse"><path
         id="path3892"
         d="m 1147.58,161.931 59.18,0 0,-14.571 -59.18,0 0,14.571 z" /></clipPath><clipPath
       id="clipPath3906"
       clipPathUnits="userSpaceOnUse"><path
         id="path3908"
         d="m 1205.88,218.591 51.16,0 0,-17.643 -51.16,0 0,17.643 z" /></clipPath><clipPath
       id="clipPath3922"
       clipPathUnits="userSpaceOnUse"><path
         id="path3924"
         d="m 1099.57,218.591 51.17,0 0,-17.643 -51.17,0 0,17.643 z" /></clipPath><clipPath
       id="clipPath3938"
       clipPathUnits="userSpaceOnUse"><path
         id="path3940"
         d="m 1167.09,218.684 24.17,0 0,-31.184 -24.17,0 0,31.184 z" /></clipPath></defs><g
     transform="matrix(1.25,0,0,-1.25,-618.06419,951.07585)"
     id="g3382"><g
       transform="translate(22.063155,242.13931)"
       id="g5242"><g
         id="g3702"
         transform="translate(512.3882,255.4238)" /><g
         id="g5202"><path
           id="path3704"
           style="fill:#cea36f;fill-opacity:1;fill-rule:nonzero;stroke:none"
           d="M 0,0 C 0,0 126.612,-29.777 205.028,54.493 247.227,99.843 66.58,102.536 66.58,102.536 66.58,102.536 56.493,48.715 0,0"
           transform="translate(512.3882,255.4238)" /><g
           id="g4363"><g
             id="g3690"
             transform="translate(657.4272,57)"><path
               d="M 0,0 77.959,0 72.872,72 5.087,72 0,0 Z"
               style="fill:#e8c6ba;fill-opacity:1;fill-rule:nonzero;stroke:none"
               id="path3692" /></g><g
             id="g3694"
             transform="translate(568.8813,247.8398)"><path
               d="m 0,0 c 0,-79.363 57.512,-144.246 128.452,-144.246 70.942,0 128.454,64.883 128.454,144.246 0,70.942 -57.512,128.453 -128.454,128.453 C 57.511,128.453 0,70.942 0,0"
               style="fill:#f2dad1;fill-opacity:1;fill-rule:nonzero;stroke:none"
               id="path3696" /></g><g
             id="g3698"
             transform="translate(580.9121,186.9639)"><path
               d="m 0,0 c 0,0 11.096,116.036 35.096,135.036 24,19 -24,-75.63 83.646,-25.744 8.538,3.957 22.758,16.414 37.585,20.018 17.54,4.263 35.931,4.534 46.769,-8.051 20,-23.223 25,-61.947 43.119,-79.577 0,0 29.873,99.337 8.881,135.354 -15.803,27.114 -112.202,127 -232,26 C -60.76,132.339 0,0 0,0"
               style="fill:#cea36f;fill-opacity:1;fill-rule:nonzero;stroke:none"
               id="path3700" /></g><g
             id="g3706"
             transform="translate(723.8057,431.9834)"><path
               d="M 0,0 C 0,0 -164.038,50.661 -166.474,-125.845"
               style="fill:#cea36f;fill-opacity:1;fill-rule:nonzero;stroke:none"
               id="path3708" /></g><g
             id="g3710"
             transform="translate(634.9531,233.4707)"><path
               d="m 0,0 c 0.741,19.652 33.619,21.071 34.404,1.086 0.201,-5.103 8.141,-5.123 7.939,0 C 41.154,31.338 -6.814,29.848 -7.938,0 -8.132,-5.123 -0.191,-5.104 0,0"
               style="fill:#472719;fill-opacity:1;fill-rule:nonzero;stroke:none"
               id="path3712" /></g><g
             id="g3714"
             transform="translate(726.2539,233.4707)"><path
               d="m 0,0 c 0.741,19.652 33.618,21.071 34.404,1.086 0.2,-5.103 8.14,-5.123 7.939,0 C 41.154,31.338 -6.814,29.848 -7.938,0 -8.131,-5.123 -0.191,-5.104 0,0"
               style="fill:#472719;fill-opacity:1;fill-rule:nonzero;stroke:none"
               id="path3716" /></g><g
             id="g3718"><g
               id="g3720" /><g
               id="g3726"><g
                 clip-path="url(#clipPath3722)"
                 id="g3728"
                 style="opacity:0.69999701"><g
                   transform="translate(669.5596,153.5703)"
                   id="g3730"><path
                     d="m 0,0 c 17.765,-9.44 37.162,-9.547 55.171,-0.691 4.593,2.26 0.568,9.109 -4.009,6.858 C 35.874,-1.353 19.045,-1.137 4.007,6.857 -0.511,9.259 -4.522,2.405 0,0"
                     style="fill:#472719;fill-opacity:1;fill-rule:nonzero;stroke:none"
                     id="path3732" /></g></g></g></g><g
             id="g3734"><g
               id="g3736" /><g
               id="g3742"><g
                 clip-path="url(#clipPath3738)"
                 id="g3744"
                 style="opacity:0.10000598"><g
                   transform="translate(777.0371,208.7695)"
                   id="g3746"><path
                     d="m 0,0 c 0,-4.871 -11.451,-8.821 -25.582,-8.821 -14.128,0 -25.58,3.95 -25.58,8.821 0,4.872 11.452,8.821 25.58,8.821 C -11.451,8.821 0,4.872 0,0"
                     style="fill:#9e1d1d;fill-opacity:1;fill-rule:nonzero;stroke:none"
                     id="path3748" /></g></g></g></g><g
             id="g3750"><g
               id="g3752" /><g
               id="g3758"><g
                 clip-path="url(#clipPath3754)"
                 id="g3760"
                 style="opacity:0.10000598"><g
                   transform="translate(670.7363,208.7695)"
                   id="g3762"><path
                     d="m 0,0 c 0,-4.871 -11.453,-8.821 -25.58,-8.821 -14.129,0 -25.582,3.95 -25.582,8.821 0,4.872 11.453,8.821 25.582,8.821 C -11.453,8.821 0,4.872 0,0"
                     style="fill:#9e1d1d;fill-opacity:1;fill-rule:nonzero;stroke:none"
                     id="path3764" /></g></g></g></g><g
             id="g3766"><g
               id="g3768" /><g
               id="g3774"><g
                 clip-path="url(#clipPath3770)"
                 id="g3776"
                 style="opacity:0.19999701"><g
                   transform="translate(711.2588,194.1914)"
                   id="g3778"><path
                     d="m 0,0 c 0,-7.884 -6.136,-7.691 -12.082,-7.691 -5.946,0 -12.083,-0.193 -12.083,7.691 0,7.885 6.137,23.492 12.083,23.492 C -6.136,23.492 0,7.885 0,0"
                     style="fill:#472719;fill-opacity:1;fill-rule:nonzero;stroke:none"
                     id="path3780" /></g></g></g></g></g></g></g></g></svg>